HIERARCHY
ROOT hip
{
  OFFSET 0 0 0
  CHANNELS 6 Xposition Yposition Zposition Zrotation Yrotation Xrotation
  JOINT abdomen
  {
    OFFSET 0 20.6881 -0.73152
    CHANNELS 3 Zrotation Xrotation Yrotation
    JOINT chest
    {
      OFFSET 0 11.7043 -0.48768
      CHANNELS 3 Zrotation Xrotation Yrotation
      JOINT neck
      {
        OFFSET 0 22.1894 -2.19456
        CHANNELS 3 Zrotation Xrotation Yrotation
        JOINT head
        {
          OFFSET -0.24384 7.07133 1.2192
          CHANNELS 3 Zrotation Xrotation Yrotation
          JOINT leftEye
          {
            OFFSET 4.14528 8.04674 8.04672
            CHANNELS 3 Zrotation Xrotation Yrotation
            End Site
            {
              OFFSET 1 0 0
            }
          }
          JOINT rightEye
          {
            OFFSET -3.6576 8.04674 8.04672
            CHANNELS 3 Zrotation Xrotation Yrotation
            End Site
            {
              OFFSET 1 0 0
            }
          }
        }
      }
      JOINT rCollar
      {
        OFFSET -2.68224 19.2634 -4.8768
        CHANNELS 3 Zrotation Xrotation Yrotation
        JOINT rShldr
        {
          OFFSET -8.77824 -1.95073 1.46304
          CHANNELS 3 Zrotation Xrotation Yrotation
          JOINT rForeArm
          {
            OFFSET -28.1742 -1.7115 0.48768
            CHANNELS 3 Zrotation Xrotation Yrotation
            JOINT rHand
            {
              OFFSET -22.5879 0.773209 7.07136
              CHANNELS 3 Zrotation Xrotation Yrotation
              JOINT rThumb1
              {
                OFFSET -1.2192 -0.487915 3.41376
                CHANNELS 3 Zrotation Xrotation Yrotation
                JOINT rThumb2
                {
                  OFFSET -3.37035 -0.52449 3.41376
                  CHANNELS 3 Zrotation Xrotation Yrotation
                  End Site
                  {
                    OFFSET -1.78271 -1.18214 1.43049
                  }
                }
              }
              JOINT rIndex1
              {
                OFFSET -7.75947 0.938293 5.60832
                CHANNELS 3 Zrotation Xrotation Yrotation
                JOINT rIndex2
                {
                  OFFSET -2.54057 -0.884171 1.56538
                  CHANNELS 3 Zrotation Xrotation Yrotation
                  End Site
                  {
                    OFFSET -1.62519 -0.234802 1.16502
                  }
                }
              }
              JOINT rMid1
              {
                OFFSET -8.24714 1.18213 3.41376
                CHANNELS 3 Zrotation Xrotation Yrotation
                JOINT rMid2
                {
                  OFFSET -3.10165 -0.590103 1.0647
                  CHANNELS 3 Zrotation Xrotation Yrotation
                  End Site
                  {
                    OFFSET -2.48547 -0.328903 0.83742
                  }
                }
              }
              JOINT rRing1
              {
                OFFSET -8.82822 0.546677 1.51678
                CHANNELS 3 Zrotation Xrotation Yrotation
                JOINT rRing2
                {
                  OFFSET -2.60934 -0.819778 -0.0198488
                  CHANNELS 3 Zrotation Xrotation Yrotation
                  End Site
                  {
                    OFFSET -2.33842 -0.294052 0.168128
                  }
                }
              }
              JOINT rPinky1
              {
                OFFSET -8.27202 -0.0477905 -0.4584
                CHANNELS 3 Zrotation Xrotation Yrotation
                JOINT rPinky2
                {
                  OFFSET -1.82734 -0.647385 -0.700984
                  CHANNELS 3 Zrotation Xrotation Yrotation
                  End Site
                  {
                    OFFSET -1.69225 -0.51767 -0.607171
                  }
                }
              }
            }
          }
        }
      }
      JOINT lCollar
      {
        OFFSET 2.68224 19.2634 -4.8768
        CHANNELS 3 Zrotation Xrotation Yrotation
        JOINT lShldr
        {
          OFFSET 8.77824 -1.95073 1.46304
          CHANNELS 3 Zrotation Xrotation Yrotation
          JOINT lForeArm
          {
            OFFSET 28.1742 -1.7115 0.48768
            CHANNELS 3 Zrotation Xrotation Yrotation
            JOINT lHand
            {
              OFFSET 22.5879 0.773209 7.07136
              CHANNELS 3 Zrotation Xrotation Yrotation
              JOINT lThumb1
              {
                OFFSET 1.2192 -0.487915 3.41376
                CHANNELS 3 Zrotation Xrotation Yrotation
                JOINT lThumb2
                {
                  OFFSET 3.37035 -0.52449 3.41376
                  CHANNELS 3 Zrotation Xrotation Yrotation
                  End Site
                  {
                    OFFSET 1.78271 -1.18214 1.43049
                  }
                }
              }
              JOINT lIndex1
              {
                OFFSET 7.75947 0.938293 5.60832
                CHANNELS 3 Zrotation Xrotation Yrotation
                JOINT lIndex2
                {
                  OFFSET 2.54057 -0.884171 1.56538
                  CHANNELS 3 Zrotation Xrotation Yrotation
                  End Site
                  {
                    OFFSET 1.62519 -0.234802 1.16502
                  }
                }
              }
              JOINT lMid1
              {
                OFFSET 8.24714 1.18213 3.41376
                CHANNELS 3 Zrotation Xrotation Yrotation
                JOINT lMid2
                {
                  OFFSET 3.10165 -0.590103 1.0647
                  CHANNELS 3 Zrotation Xrotation Yrotation
                  End Site
                  {
                    OFFSET 2.48547 -0.328903 0.83742
                  }
                }
              }
              JOINT lRing1
              {
                OFFSET 8.82822 0.546677 1.51678
                CHANNELS 3 Zrotation Xrotation Yrotation
                JOINT lRing2
                {
                  OFFSET 2.60934 -0.819778 -0.0198488
                  CHANNELS 3 Zrotation Xrotation Yrotation
                  End Site
                  {
                    OFFSET 2.33842 -0.294052 0.168128
                  }
                }
              }
              JOINT lPinky1
              {
                OFFSET 8.27202 -0.0477905 -0.4584
                CHANNELS 3 Zrotation Xrotation Yrotation
                JOINT lPinky2
                {
                  OFFSET 1.82734 -0.647385 -0.700984
                  CHANNELS 3 Zrotation Xrotation Yrotation
                  End Site
                  {
                    OFFSET 1.69225 -0.51767 -0.607171
                  }
                }
              }
            }
          }
        }
      }
    }
  }
  JOINT rButtock
  {
    OFFSET -8.77824 4.35084 1.2192
    CHANNELS 3 Zrotation Xrotation Yrotation
    JOINT rThigh
    {
      OFFSET 0 -1.70687 -2.19456
      CHANNELS 3 Zrotation Xrotation Yrotation
      JOINT rShin
      {
        OFFSET 0 -36.8199 0.73152
        CHANNELS 3 Zrotation Xrotation Yrotation
        JOINT rFoot
        {
          OFFSET 0.73152 -45.1104 -5.12064
          CHANNELS 3 Zrotation Xrotation Yrotation
          End Site
          {
            OFFSET -1.1221 -3.69964 12.103
          }
        }
      }
    }
  }
  JOINT lButtock
  {
    OFFSET 8.77824 4.35084 1.2192
    CHANNELS 3 Zrotation Xrotation Yrotation
    JOINT lThigh
    {
      OFFSET 0 -1.70687 -2.19456
      CHANNELS 3 Zrotation Xrotation Yrotation
      JOINT lShin
      {
        OFFSET 0 -36.8199 0.73152
        CHANNELS 3 Zrotation Xrotation Yrotation
        JOINT lFoot
        {
          OFFSET -0.73152 -45.1104 -5.12064
          CHANNELS 3 Zrotation Xrotation Yrotation
          End Site
          {
            OFFSET 1.1221 -3.69964 12.103
          }
        }
      }
    }
  }
}
MOTION
Frames:	4
Frame Time:	0.00833333
-198.209 79.6081 4.40535 0.0 0.0 0.0 1.9299 -0.00172169 0.052383 0.532086 0.0050714 0.0921232 -2.30661e-14 -2.38542e-15 6.4605e-16 -6.8795e-14 3.18055e-15 1.78751e-15 -0.0 0.0 0.0 -0.0 0.0 0.0 -1.15807e-14 4.27076e-17 4.47265e-16 -2.38261e-13 9.93923e-16 6.75868e-15 -4.16076e-12 1.26964e-12 1.59028e-13 -4.75701e-11 -1.07788e-12 1.16408e-12 -1.12225e-10 4.15403e-13 2.88794e-12 -1.93825e-10 7.15625e-13 4.98711e-12 -1.12218e-10 4.18243e-13 2.87522e-12 7.73091 5.47488 0.417314 -1.12224e-10 4.16056e-13 2.88794e-12 2.90554 0.965183 0.102902 -1.12218e-10 4.15957e-13 2.88794e-12 10.2786 0.731801 0.0259123 -1.12234e-10 4.15858e-13 2.89749e-12 2.22167 -0.733487 -0.20892 -1.14791e-14 4.27076e-17 1.49089e-16 -2.44134e-13 1.01256e-15 4.77083e-15 -4.15917e-12 -1.21179e-12 1.84472e-13 -4.75785e-11 1.39738e-12 1.14818e-12 -1.12227e-10 3.98288e-13 2.87522e-12 -1.9379e-10 6.83819e-13 4.97677e-12 -1.12236e-10 4.03533e-13 2.88794e-12 -7.73091 5.47488 -0.417314 -1.12228e-10 3.98762e-13 2.88158e-12 -2.90554 0.965183 -0.102902 -1.12241e-10 3.98762e-13 2.8792e-12 -10.2786 0.731801 -0.0259123 -1.12225e-10 3.98364e-13 2.87204e-12 -2.22167 -0.733487 0.20892 -2.03217e-16 0.0 -3.88251e-19 1.95917 -7.2612 -0.191997 0.00412277 7.58535 0.107082 -0.520956 -0.330697 0.0522909 2.03217e-16 0.0 3.88251e-19 0.97637 -1.92613 0.000874979 0.00898941 -2.0786 0.0740827 0.4882 3.99809 -0.136785
-192.602 75.4115 -6.37985 95.6315 79.8899 96.7975 -4.65578 4.95366 0.511455 0.830296 -1.39807 -0.0667818 -0.566493 -4.14793 -0.202711 2.0396 -2.78336 0.14084 -0.0 0.0 0.0 -0.0 0.0 0.0 2.12712e-13 1.23372e-12 8.90462e-14 21.3816 14.9664 -9.14422 -20.2541 -18.0195 15.1576 0.0673416 -5.76185 -0.795062 -4.69106e-10 2.70416e-10 -3.93368e-10 -8.03237e-10 4.67233e-10 -6.88003e-10 -4.69096e-10 2.70418e-10 -3.93383e-10 7.73091 5.47488 0.417314 -4.69105e-10 2.70416e-10 -3.93367e-10 2.90554 0.965183 0.102902 -4.69099e-10 2.70417e-10 -3.93368e-10 10.2786 0.731801 0.0259123 -4.69114e-10 2.70415e-10 -3.93358e-10 2.22167 -0.733487 -0.20892 2.12732e-13 1.23372e-12 8.87764e-14 -19.2167 14.2821 -3.28565 21.9091 -19.766 -15.0501 -0.0119877 -2.4379 0.341518 -1.14677e-10 -9.17662e-10 5.50492e-11 -1.96331e-10 -1.58112e-09 9.05631e-11 -1.14683e-10 -9.17658e-10 5.50598e-11 -7.73091 5.47488 -0.417314 -1.14676e-10 -9.17661e-10 5.50516e-11 -2.90554 0.965183 -0.102902 -1.14688e-10 -9.17661e-10 5.50501e-11 -10.2786 0.731801 -0.0259123 -1.14675e-10 -9.1766e-10 5.50409e-11 -2.22167 -0.733487 0.20892 -2.03217e-16 0.0 -3.88251e-19 -4.88005 -12.3795 -2.21256 15.4996 24.753 8.79457 -20.32 -45.1741 -24.1578 2.03217e-16 0.0 3.88251e-19 -4.72412 -4.02747 1.07756 -0.154859 9.34917 -0.207174 0.467543 -5.68929 -0.231847
-189.912 75.6521 -6.57414 95.7099 79.4083 96.7769 -11.6752 10.1855 1.11426 1.08952 -2.86065 -0.207714 -1.21994 -8.52653 -0.43947 4.24544 -5.74903 0.270072 -0.0 0.0 0.0 -0.0 0.0 0.0 4.59216e-13 2.65164e-12 1.8979e-13 49.7533 29.4373 -20.833 -30.1802 -32.5993 35.9209 -0.0388061 -11.8542 -1.66342 -8.56319e-10 5.58994e-10 -8.55287e-10 -1.46407e-09 9.65835e-10 -1.49514e-09 -8.56306e-10 5.58996e-10 -8.55305e-10 7.73091 5.47488 0.417314 -8.56317e-10 5.58995e-10 -8.55285e-10 2.90554 0.965183 0.102902 -8.56311e-10 5.58995e-10 -8.55287e-10 10.2786 0.731801 0.0259123 -8.56327e-10 5.58991e-10 -8.55277e-10 2.22167 -0.733487 -0.20892 4.5915e-13 2.65163e-12 1.8955e-13 -37.5285 29.2336 -7.40859 32.0695 -35.6938 -36.8101 0.00717602 -5.0388 0.707988 -9.01036e-11 -1.90471e-09 4.64323e-11 -1.51678e-10 -3.28164e-09 7.07336e-11 -9.01078e-11 -1.90471e-09 4.64405e-11 -7.73091 5.47488 -0.417314 -9.01011e-11 -1.90471e-09 4.64302e-11 -2.90554 0.965183 -0.102902 -9.0112e-11 -1.90471e-09 4.64296e-11 -10.2786 0.731801 -0.0259123 -9.01022e-11 -1.90471e-09 4.6418e-11 -2.22167 -0.733487 0.20892 -2.03217e-16 0.0 -3.88251e-19 -12.4958 -17.6001 -4.33226 25.408 41.2452 22.6356 -108.471 -53.3959 -100.768 2.03217e-16 0.0 3.88251e-19 -10.6456 -6.37254 2.29605 -0.194223 21.5106 -0.527962 0.410353 -15.9871 -0.318154
-187.148 75.8693 -6.73006 94.0328 79.1616 95.3162 -18.0725 14.8603 1.47315 1.40332 -4.20427 -0.38557 -1.78933 -12.4432 -0.62113 6.16021 -8.34986 0.426544 -0.0 0.0 0.0 -0.0 0.0 0.0 6.61297e-13 3.70107e-12 2.66244e-13 81.3832 39.6283 -35.3955 -29.8483 -37.1224 59.1393 -0.296818 -17.2719 -2.48527 -1.18287e-09 8.10417e-10 -1.18588e-09 -2.02206e-09 1.40027e-09 -2.07398e-09 -1.18285e-09 8.10418e-10 -1.1859e-09 7.73091 5.47488 0.417314 -1.18287e-09 8.10417e-10 -1.18588e-09 2.90554 0.965183 0.102902 -1.18286e-09 8.10418e-10 -1.18588e-09 10.2786 0.731801 0.0259123 -1.18288e-09 8.10412e-10 -1.18587e-09 2.22167 -0.733487 -0.20892 6.61156e-13 3.70106e-12 2.66031e-13 -51.314 42.1796 -12.94 30.4486 -40.3143 -62.2364 0.051829 -7.31267 1.03202 -1.19576e-10 -2.75378e-09 1.59397e-10 -2.01413e-10 -4.74473e-09 2.61736e-10 -1.19578e-10 -2.75378e-09 1.59404e-10 -7.73091 5.47488 -0.417314 -1.19572e-10 -2.75378e-09 1.59392e-10 -2.90554 0.965183 -0.102902 -1.19582e-10 -2.75378e-09 1.59392e-10 -10.2786 0.731801 -0.0259123 -1.19575e-10 -2.75378e-09 1.59378e-10 -2.22167 -0.733487 0.20892 -2.03217e-16 0.0 -3.88251e-19 -19.7224 -22.5076 -6.60766 22.8499 52.3458 41.2061 -156.583 -22.7043 -123.347 2.03217e-16 0.0 3.88251e-19 -15.8861 -8.21917 3.25642 -0.0986445 32.2017 -0.899745 0.318204 -25.0635 -0.462788
